Coordinates
version=1
nRows=9
nColumns=63
inDegrees=yes

Units are S.I. units (second, meters, Newtons, ...)
If the header above contains a line with 'inDegrees', this indicates whether rotational values are in degrees (yes) or radians (no).

endheader
time	pelvis_tilt	pelvis_list	pelvis_rotation	pelvis_tx	pelvis_ty	pelvis_tz	hip_flexion_r	hip_adduction_r	hip_rotation_r	knee_angle_r	knee_angle_r_beta	ankle_angle_r	subtalar_angle_r	mtp_angle_r	hip_flexion_l	hip_adduction_l	hip_rotation_l	knee_angle_l	knee_angle_l_beta	ankle_angle_l	subtalar_angle_l	mtp_angle_l	L5_S1_Flex_Ext	L5_S1_Lat_Bending	L5_S1_axial_rotation	L4_L5_Flex_Ext	L4_L5_Lat_Bending	L4_L5_axial_rotation	L3_L4_Flex_Ext	L3_L4_Lat_Bending	L3_L4_axial_rotation	L2_L3_Flex_Ext	L2_L3_Lat_Bending	L2_L3_axial_rotation	L1_L2_Flex_Ext	L1_L2_Lat_Bending	L1_L2_axial_rotation	L1_T12_Flex_Ext	L1_T12_Lat_Bending	L1_T12_axial_rotation	Abs_r3	Abs_r2	Abs_r1	Abs_t1	Abs_t2	neck_flexion	neck_bending	neck_rotation	arm_flex_r	arm_add_r	arm_rot_r	elbow_flex_r	pro_sup_r	wrist_flex_r	wrist_dev_r	arm_flex_l	arm_add_l	arm_rot_l	elbow_flex_l	pro_sup_l	wrist_flex_l	wrist_dev_l
      2.60000000	      3.42565397	     -2.04196527	      0.62048518	     -0.61396261	      0.95912022	      0.34870443	      7.69247071	      5.28427803	    -10.65101419	     18.52116116	      0.32325524	     11.07379668	     -1.86412645	      0.00000000	     11.09612127	     -6.88012701	     -3.68801882	     73.52561469	      1.28326406	      3.99663732	     -5.79832520	      0.00000000	      0.00239227	      0.23188771	     -0.06354621	      0.00444269	      0.30841065	     -0.06751785	      0.00393026	      0.56381177	     -0.06751785	      0.00273413	      0.56381177	     -0.05560293	      0.00222146	      0.47286541	     -0.05163129	      0.00136694	      0.35919406	     -0.04765966	      0.01708775	      2.62316010	     -0.35342495	      0.00000000	      0.00000000	     -0.00000000	      0.00000000	      0.00000000	      0.19875970	    -11.99867063	      4.26956161	     24.18932025	     60.60406860	      0.00000000	      5.00000016	     -7.42037077	    -13.19717641	     30.37774349	     24.00291526	     45.63805456	      0.00000000	      5.00000016
      2.63333333	      3.00789891	     -1.78548394	     -0.99196474	     -0.57858037	      0.96516018	      0.35188074	      4.47062520	      5.18448851	    -10.51419007	     16.21186441	      0.28295041	     11.48206221	      0.32324021	      0.00000000	     18.19951987	     -6.51060437	     -3.97976280	     74.96524779	      1.30839040	      8.04988519	     -7.16471626	      0.00000000	     -0.00115751	      0.20519965	      0.26218698	     -0.00214961	      0.27291554	      0.27857367	     -0.00190167	      0.49892243	      0.27857367	     -0.00132292	      0.49892243	      0.22941361	     -0.00107486	      0.41844313	      0.21302692	     -0.00066140	      0.31785426	      0.19664024	     -0.00826798	      2.32125950	      1.45820534	      0.00000000	      0.00000000	     -0.00000000	      0.00000000	      0.00000000	      4.24428703	    -12.46289941	      4.83117731	     24.37954195	     60.53583147	      0.00000000	      5.00000016	     -9.05846681	    -12.87734048	     31.10485328	     22.74061917	     45.97113384	      0.00000000	      5.00000016
      2.66666667	      2.48697759	     -1.48924549	     -3.07643870	     -0.54399823	      0.96948133	      0.35570184	      1.64469927	      4.55262595	    -13.18229485	     14.45078066	      0.25221370	     12.42712778	      6.83677770	      0.00000000	     24.45267047	     -6.30489310	     -4.95486367	     72.32206289	      1.26225812	     10.70598394	     -9.79408062	      0.00000000	     -0.00453473	      0.16800530	      0.65858281	     -0.00842145	      0.22344705	      0.69974424	     -0.00745011	      0.40848809	      0.69974424	     -0.00518275	      0.40848809	      0.57625996	     -0.00421095	      0.34259641	      0.53509853	     -0.00259115	      0.26024021	      0.49393711	     -0.03239115	      1.90050957	      3.66284002	      0.00000000	      0.00000000	     -0.00000000	      0.00000000	      0.00000000	      9.23941003	    -15.03111724	     22.96554689	     24.07137072	     35.06152279	      0.00000000	      5.00000013	    -10.86713609	    -12.81918378	     28.19791057	     22.65192291	     62.34946104	      0.00000000	      5.00000013
      2.70000000	      1.92968143	     -1.18880816	     -5.82793682	     -0.50864334	      0.97131659	      0.36088677	     -1.05990926	      4.42928356	    -11.04595588	     12.61369509	      0.22015051	     12.80702755	      7.61398148	      0.00000000	     29.00364502	     -6.61185805	     -6.55850332	     65.95759640	      1.15117722	     10.97081585	    -13.36621255	      0.00000000	     -0.00559071	      0.13031297	      1.14450454	     -0.01038251	      0.17331625	      1.21603608	     -0.00918498	      0.31684295	      1.21603608	     -0.00638962	      0.31684295	      1.00144148	     -0.00519153	      0.26573420	      0.92990994	     -0.00319453	      0.20185478	      0.85837841	     -0.03993389	      1.47412634	      6.36539092	      0.00000000	      0.00000000	     -0.00000000	      0.00000000	      0.00000000	     13.12399793	    -15.95332183	     27.89571021	     25.18155819	     35.92933008	      0.00000000	      5.00000013	    -13.40979522	    -12.57358609	     23.49125557	     23.63217561	     60.78729533	      0.00000000	      5.00000013
      2.73333333	      1.40836643	     -0.87747849	     -8.80139560	     -0.47209918	      0.97036338	      0.36657590	     -3.74252272	      4.17062992	     -7.63628448	     10.97525252	      0.19155429	     13.48521091	      7.24864626	      0.00000000	     31.60438025	     -7.48012435	     -8.80542227	     56.80272906	      0.99139465	      9.35072621	    -16.40330341	      0.00000000	     -0.00721441	      0.08896170	      1.63479991	     -0.01339788	      0.11831906	      1.73697491	     -0.01185255	      0.21630148	      1.73697491	     -0.00824535	      0.21630148	      1.43044992	     -0.00669930	      0.18141070	      1.32827493	     -0.00412231	      0.13780168	      1.22609993	     -0.05153179	      1.00635256	      9.09226667	      0.00000000	      0.00000000	     -0.00000000	      0.00000000	      0.00000000	     16.15912539	    -16.23438078	     29.43409813	     27.19209051	     35.88287218	      0.00000000	      5.00000013	    -16.27567693	    -12.04418109	     16.43988820	     25.18365892	     59.12228699	      0.00000000	      5.00000013
      2.76666667	      0.98370800	     -0.58080915	    -11.68061721	     -0.43393825	      0.96657383	      0.37184870	     -6.41115313	      3.62442394	     -3.94080467	      9.72686465	      0.16976581	     14.71690681	      6.75899356	      0.00000000	     32.30102593	     -8.56542383	    -11.80311919	     45.78988204	      0.79918421	      7.24853792	    -17.52310969	      0.00000000	     -0.00766976	      0.05084563	      2.07978854	     -0.01424350	      0.06762469	      2.20977532	     -0.01260064	      0.12362607	      2.20977532	     -0.00876576	      0.12362607	      1.81981497	     -0.00712214	      0.10368441	      1.68982819	     -0.00438250	      0.07875988	      1.55984140	     -0.05478430	      0.57517595	     11.56715991	      0.00000000	      0.00000000	     -0.00000000	      0.00000000	      0.00000000	     18.37298047	    -16.10053402	     28.93576966	     29.84748845	     35.54455788	      0.00000000	      5.00000013	    -18.75252988	    -11.49141475	     10.80032162	     26.34913139	     58.14942106	      0.00000000	      5.00000013
      2.80000000	      0.68944569	     -0.50032377	    -14.17953445	     -0.39355628	      0.96022528	      0.37583069	     -9.21248789	      2.97695139	     -0.07766023	      8.73805015	      0.15250775	     16.05639749	      5.67240693	      0.00000000	     31.58038921	     -9.31330895	    -14.62673413	     34.13847373	      0.59582877	      5.03226739	    -17.19498323	      0.00000000	     -0.00432165	      0.03970788	      2.43827120	     -0.00802573	      0.05281148	      2.59066315	     -0.00710003	      0.09654574	      2.59066315	     -0.00493921	      0.09654574	      2.13348730	     -0.00401308	      0.08097231	      1.98109535	     -0.00246939	      0.06150751	      1.82870340	     -0.03086910	      0.44918348	     13.56093291	      0.00000000	      0.00000000	     -0.00000000	      0.00000000	      0.00000000	     19.83589260	    -15.84002167	     27.75754003	     32.80048840	     35.16009443	      0.00000000	      5.00000013	    -20.89540513	    -10.39301592	      4.20474729	     26.98274698	     57.28439325	      0.00000000	      5.00000013
      2.83333333	      0.58282636	     -0.69998272	    -16.22103278	     -0.35059439	      0.95211539	      0.37848596	    -12.15764278	      2.24955797	      3.32705020	      8.17317731	      0.14264885	     17.45901298	      4.59199577	      0.00000000	     30.19171796	     -9.70833528	    -16.52399987	     23.84777343	      0.41622217	      3.08275472	    -15.83393066	      0.00000000	     -0.00174260	      0.06156236	      2.70714653	     -0.00323619	      0.08187794	      2.87634319	     -0.00286292	      0.14968273	      2.87634319	     -0.00199162	      0.14968273	      2.36875322	     -0.00161818	      0.12553797	      2.19955656	     -0.00099572	      0.09536010	      2.03035990	     -0.01244725	      0.69640575	     15.05633687	      0.00000000	      0.00000000	     -0.00000000	      0.00000000	      0.00000000	     20.60242361	    -15.61823694	     26.71133546	     35.66747264	     34.89305279	      0.00000000	      5.00000013	    -22.43694585	     -8.84101038	     -2.94015238	     26.84660075	     56.68229948	      0.00000000	      5.00000013
      2.86666667	      0.60924144	     -0.94524860	    -17.59951540	     -0.30516728	      0.94351684	      0.38029473	    -14.93575702	      1.34222426	      5.39537658	      8.41784620	      0.14691913	     18.80304097	      4.24562214	      0.00000000	     28.99259654	     -9.85175630	    -17.25598083	     16.94871159	      0.29581082	      1.93580428	    -13.90813083	      0.00000000	      0.00162997	      0.08437028	      2.85018364	      0.00302702	      0.11221247	      3.02832011	      0.00267788	      0.20513790	      3.02832011	      0.00186289	      0.20513790	      2.49391068	      0.00151359	      0.17204787	      2.31577421	      0.00093137	      0.13068956	      2.13763773	      0.01164272	      0.95441346	     15.85186634	      0.00000000	      0.00000000	     -0.00000000	      0.00000000	      0.00000000	     20.66797115	    -15.31004289	     25.87528372	     38.17373967	     34.76859384	      0.00000000	      5.00000013	    -23.28228206	     -7.08009130	    -10.97199485	     26.01882007	     56.17785898	      0.00000000	      5.00000013
